<svg width="42" height="43" xmlns="http://www.w3.org/2000/svg" xmlns:xlink="http://www.w3.org/1999/xlink" xml:space="preserve" overflow="hidden"><defs><clipPath id="clip0"><rect x="786" y="568" width="42" height="43"/></clipPath></defs><g clip-path="url(#clip0)" transform="translate(-786 -568)"><path d="M37.4062 33.075 31.9375 27.6062C31.1938 26.8625 30.1875 26.6 29.225 26.775L27.3 24.85C29.0063 22.6625 30.0125 19.8625 30.0125 16.8875 30.0125 9.66875 24.1062 3.7625 16.8875 3.7625 9.66875 3.7625 3.7625 9.66875 3.7625 16.8875 3.7625 24.1062 9.66875 30.0125 16.8875 30.0125 19.8625 30.0125 22.6187 29.0063 24.85 27.3L26.775 29.225C26.6 30.1875 26.8625 31.1938 27.6062 31.9375L33.075 37.4062C33.6875 38.0187 34.475 38.325 35.2625 38.325 36.05 38.325 36.8375 38.0187 37.45 37.4062 38.5875 36.1812 38.5875 34.2563 37.4062 33.075ZM16.8438 27.3438C11.0687 27.3438 6.34375 22.6187 6.34375 16.8438 6.34375 11.0687 11.0687 6.34375 16.8438 6.34375 22.6187 6.34375 27.3438 11.0687 27.3438 16.8438 27.3438 22.6187 22.6187 27.3438 16.8438 27.3438Z" fill="#FFFFFF" transform="matrix(1 0 0 1.02381 786 568)"/></g></svg>