<svg width="75" height="75" xmlns="http://www.w3.org/2000/svg" xmlns:xlink="http://www.w3.org/1999/xlink" xml:space="preserve" overflow="hidden"><defs><clipPath id="clip0"><rect x="779" y="551" width="75" height="75"/></clipPath></defs><g clip-path="url(#clip0)" transform="translate(-779 -551)"><path d="M66.7969 59.0625 57.0312 49.2969C55.7031 47.9688 53.9062 47.5 52.1875 47.8125L48.75 44.375C51.7969 40.4688 53.5938 35.4688 53.5938 30.1562 53.5938 17.2656 43.0469 6.71875 30.1562 6.71875 17.2656 6.71875 6.71875 17.2656 6.71875 30.1562 6.71875 43.0469 17.2656 53.5938 30.1562 53.5938 35.4688 53.5938 40.3906 51.7969 44.375 48.75L47.8125 52.1875C47.5 53.9062 47.9688 55.7031 49.2969 57.0312L59.0625 66.7969C60.1562 67.8906 61.5625 68.4375 62.9688 68.4375 64.375 68.4375 65.7812 67.8906 66.875 66.7969 68.9062 64.6094 68.9062 61.1719 66.7969 59.0625ZM30.0781 48.8281C19.7656 48.8281 11.3281 40.3906 11.3281 30.0781 11.3281 19.7656 19.7656 11.3281 30.0781 11.3281 40.3906 11.3281 48.8281 19.7656 48.8281 30.0781 48.8281 40.3906 40.3906 48.8281 30.0781 48.8281Z" fill="#FFFFFF" transform="matrix(-1 0 0 1 854 551)"/></g></svg>